<?xml version="1.0" encoding="UTF-8"?>
<svg xmlns="http://www.w3.org/2000/svg" version="1.1" width="128px" height="128px" style="shape-rendering:geometricPrecision; text-rendering:geometricPrecision; image-rendering:optimizeQuality; fill-rule:evenodd; clip-rule:evenodd" xmlns:xlink="http://www.w3.org/1999/xlink">
<g><path style="opacity:0.982" fill="#3d9843" d="M 15.5,0.5 C 29.8673,0.177441 44.2006,0.677441 58.5,2C 61.7314,6.38829 64.7314,10.8883 67.5,15.5C 64.7314,20.1117 61.7314,24.6117 58.5,29C 51.1667,29.3333 43.8333,29.6667 36.5,30C 34.1523,30.3459 32.3189,31.5125 31,33.5C 29.9554,42.1281 29.122,50.7948 28.5,59.5C 24.6357,56.068 20.3023,53.4013 15.5,51.5C 10.6977,53.4013 6.36433,56.068 2.5,59.5C 1.33377,43.5104 1.1671,27.5104 2,11.5C 4.61566,5.37235 9.11566,1.70568 15.5,0.5 Z"/></g>
<g><path style="opacity:0.985" fill="#f1a030" d="M 67.5,1.5 C 83.5035,1.33341 99.5035,1.50007 115.5,2C 120,3.83333 123.167,7 125,11.5C 125.667,27.1667 125.667,42.8333 125,58.5C 121.078,61.2114 117.244,64.0447 113.5,67C 112.167,67.6667 110.833,67.6667 109.5,67C 105.756,64.0447 101.922,61.2114 98,58.5C 97.6667,51.5 97.3333,44.5 97,37.5C 96.5,33 94,30.5 89.5,30C 82.1441,29.8313 74.8108,29.3313 67.5,28.5C 70.932,24.6357 73.5987,20.3023 75.5,15.5C 73.2102,10.5616 70.5435,5.89497 67.5,1.5 Z"/></g>
<g><path style="opacity:1" fill="#9a661f" d="M 99.5,7.5 C 103.555,7.17575 107.555,7.50909 111.5,8.5C 113.299,11.2672 114.966,14.1006 116.5,17C 115.223,20.3879 113.556,23.5546 111.5,26.5C 107.541,27.6599 103.541,27.8265 99.5,27C 97.1789,24.1917 95.5122,21.025 94.5,17.5C 95.6502,13.8662 97.3169,10.5329 99.5,7.5 Z"/></g>
<g><path style="opacity:1" fill="#29672d" d="M 15.5,9.5 C 26.8027,8.82461 30.9693,13.8246 28,24.5C 22.3333,31.1667 16.6667,31.1667 11,24.5C 8.06372,18.0578 9.56372,13.0578 15.5,9.5 Z"/></g>
<g><path style="opacity:0.936" fill="#586b7f" d="M 58.5,43.5 C 61.8499,43.335 65.1832,43.5017 68.5,44C 69.4836,47.5117 71.8169,49.6783 75.5,50.5C 80.2326,49.5975 82.8992,51.7642 83.5,57C 79.5,61.3333 79.5,65.6667 83.5,70C 82.8895,75.5741 80.0562,77.7407 75,76.5C 71.5555,77.4574 69.3888,79.6241 68.5,83C 65.1667,83.6667 61.8333,83.6667 58.5,83C 57.5164,79.4883 55.1831,77.3217 51.5,76.5C 46.7674,77.4025 44.1008,75.2358 43.5,70C 47.5,65.6667 47.5,61.3333 43.5,57C 44.229,54.7518 45.229,52.5851 46.5,50.5C 48.2844,49.394 50.1178,49.394 52,50.5C 55.7225,49.5662 57.8891,47.2328 58.5,43.5 Z M 60.5,56.5 C 69.8504,56.3654 72.517,60.532 68.5,69C 59.9562,72.3224 56.1229,69.4891 57,60.5C 57.6897,58.6498 58.8564,57.3164 60.5,56.5 Z"/></g>
<g><path style="opacity:0.99" fill="#286fcb" d="M 13.5,59.5 C 19.221,61.3534 24.3877,64.3534 29,68.5C 29.3333,75.5 29.6667,82.5 30,89.5C 30.5,94 33,96.5 37.5,97C 44.8559,97.1687 52.1892,97.6687 59.5,98.5C 56.068,102.364 53.4013,106.698 51.5,111.5C 53.4013,116.302 56.068,120.636 59.5,124.5C 43.5104,125.666 27.5104,125.833 11.5,125C 7,123.167 3.83333,120 2,115.5C 1.33333,99.8333 1.33333,84.1667 2,68.5C 6.17452,65.8422 10.0078,62.8422 13.5,59.5 Z"/></g>
<g><path style="opacity:0.99" fill="#d8565c" d="M 97.5,67.5 C 101.895,70.5435 106.562,73.2102 111.5,75.5C 116.302,73.5987 120.636,70.932 124.5,67.5C 125.666,83.4896 125.833,99.4896 125,115.5C 123.167,120 120,123.167 115.5,125C 99.8333,125.667 84.1667,125.667 68.5,125C 65.7886,121.078 62.9553,117.244 60,113.5C 59.3333,112.167 59.3333,110.833 60,109.5C 62.9553,105.756 65.7886,101.922 68.5,98C 75.5,97.6667 82.5,97.3333 89.5,97C 94,96.5 96.5,94 97,89.5C 97.4997,82.1742 97.6663,74.8409 97.5,67.5 Z"/></g>
<g><path style="opacity:1" fill="#1a4781" d="M 20.5,96.5 C 21.3764,96.3691 22.0431,96.7025 22.5,97.5C 25.3723,103.412 28.3723,109.245 31.5,115C 24.8333,115.667 18.1667,115.667 11.5,115C 14.9116,109.011 17.9116,102.844 20.5,96.5 Z"/></g>
<g><path style="opacity:1" fill="#803337" d="M 99.5,99.5 C 105.5,99.5 111.5,99.5 117.5,99.5C 117.5,105.5 117.5,111.5 117.5,117.5C 111.5,117.5 105.5,117.5 99.5,117.5C 99.5,111.5 99.5,105.5 99.5,99.5 Z"/></g>
</svg>
